<svg xmlns="http://www.w3.org/2000/svg" width="222.156" height="159.079" viewBox="0 0 222.156 159.079">
  <g id="Arend" transform="translate(0 -54.918)">
    <g id="Group_52" data-name="Group 52" transform="translate(0 107.128)">
      <path id="Path_74" data-name="Path 74" d="M321.084,145.832v61.821H294.2a61.821,61.821,0,0,1-61.821-61.821h88.706Z" transform="translate(-232.378 -145.832)" fill="#85532e"/>
      <path id="Path_75" data-name="Path 75" d="M304.5,145.832V196.1h-21.86a50.266,50.266,0,0,1-50.265-50.266H304.5Z" transform="translate(-215.798 -145.832)" fill="#ab6b3b"/>
      <path id="Path_76" data-name="Path 76" d="M295.108,145.832v43.717H276.1a43.718,43.718,0,0,1-43.717-43.717h62.73Z" transform="translate(-206.402 -145.832)" fill="#85532e"/>
      <path id="Path_77" data-name="Path 77" d="M284.439,145.832v36.282H268.66a36.282,36.282,0,0,1-36.282-36.282h52.061Z" transform="translate(-195.733 -145.832)" fill="#ab6b3b"/>
    </g>
    <g id="Group_53" data-name="Group 53" transform="translate(133.449 107.128)">
      <path id="Path_78" data-name="Path 78" d="M0,145.832v61.821H26.885a61.82,61.82,0,0,0,61.821-61.82H0Z" transform="translate(0 -145.832)" fill="#85532e"/>
      <path id="Path_79" data-name="Path 79" d="M28.872,145.832V196.1h21.86A50.266,50.266,0,0,0,101,145.832H28.872Z" transform="translate(-28.872 -145.832)" fill="#ab6b3b"/>
      <path id="Path_80" data-name="Path 80" d="M45.233,145.832v43.717H64.246a43.717,43.717,0,0,0,43.717-43.717H45.233Z" transform="translate(-45.233 -145.832)" fill="#85532e"/>
      <path id="Path_81" data-name="Path 81" d="M63.811,145.832v36.282H79.59a36.282,36.282,0,0,0,36.282-36.282H63.811Z" transform="translate(-63.811 -145.832)" fill="#ab6b3b"/>
    </g>
    <g id="Group_54" data-name="Group 54" transform="translate(93.653 185.98)">
      <path id="Path_82" data-name="Path 82" d="M187.519,305.384h7.135V286.392a3.255,3.255,0,0,0-3.254-3.254h-.627a3.254,3.254,0,0,0-3.254,3.254v18.992h0Z" transform="translate(-173.838 -283.138)" fill="#db9f15"/>
      <path id="Path_83" data-name="Path 83" d="M173.156,327.648h25.311a2.632,2.632,0,0,0,2.632-2.632v-.507a2.632,2.632,0,0,0-2.632-2.632H173.156a2.632,2.632,0,0,0-2.632,2.632v.507A2.632,2.632,0,0,0,173.156,327.648Z" transform="translate(-170.524 -299.63)" fill="#db9f15"/>
    </g>
    <g id="Group_55" data-name="Group 55" transform="translate(108.94 185.98)">
      <path id="Path_84" data-name="Path 84" d="M160.9,305.384h7.135V286.392a3.255,3.255,0,0,0-3.254-3.254h-.627a3.255,3.255,0,0,0-3.254,3.254v18.992h0Z" transform="translate(-147.218 -283.138)" fill="#ffb819"/>
      <path id="Path_85" data-name="Path 85" d="M146.537,327.648h25.311a2.632,2.632,0,0,0,2.632-2.632v-.507a2.632,2.632,0,0,0-2.632-2.632H146.537a2.632,2.632,0,0,0-2.632,2.632v.507A2.632,2.632,0,0,0,146.537,327.648Z" transform="translate(-143.905 -299.63)" fill="#ffb819"/>
    </g>
    <path id="Path_86" data-name="Path 86" d="M170.862,54.918h0a30.431,30.431,0,0,1,30.431,30.43V200.565h-10.03a50.832,50.832,0,0,1-50.832-50.832V85.349A30.43,30.43,0,0,1,170.862,54.918Z" transform="translate(-59.785)" fill="#985f35"/>
    <path id="Path_87" data-name="Path 87" d="M260.2,98.773h5.457V120.6H238.372A21.825,21.825,0,0,1,260.2,98.773Z" transform="translate(-180.39 -18.67)" fill="#ffb819"/>
    <g id="Group_56" data-name="Group 56" transform="translate(95.197 72.692)">
      <circle id="Ellipse_7" data-name="Ellipse 7" cx="9.162" cy="9.162" r="9.162" transform="translate(0)" fill="#fff"/>
      <circle id="Ellipse_8" data-name="Ellipse 8" cx="4.581" cy="4.581" r="4.581" transform="translate(4.581 4.581)" fill="#512c1d"/>
    </g>
    <g id="Group_57" data-name="Group 57" transform="translate(141.508 176.641)">
      <path id="Path_88" data-name="Path 88" d="M110.562,266.877h0A23.925,23.925,0,0,1,86.637,290.8H70.268V266.877Z" transform="translate(-70.268 -266.877)" fill="#985f35"/>
      <path id="Path_89" data-name="Path 89" d="M117.295,266.877h0A18.533,18.533,0,0,1,98.762,285.41H86.082V266.877Z" transform="translate(-86.082 -266.877)" fill="#704627"/>
    </g>
    <g id="Group_58" data-name="Group 58" transform="translate(86.313 116.317)">
      <rect id="Rectangle_79" data-name="Rectangle 79" width="2.297" height="8.952" transform="translate(35.159 0)" fill="#704627"/>
      <rect id="Rectangle_80" data-name="Rectangle 80" width="2.297" height="8.952" transform="translate(23.44 0)" fill="#704627"/>
      <rect id="Rectangle_81" data-name="Rectangle 81" width="2.297" height="8.952" transform="translate(29.748 13.926)" fill="#704627"/>
      <rect id="Rectangle_82" data-name="Rectangle 82" width="2.297" height="8.952" transform="translate(16.898 13.926)" fill="#704627"/>
      <rect id="Rectangle_83" data-name="Rectangle 83" width="2.297" height="8.952" transform="translate(4.047 13.926)" fill="#704627"/>
      <rect id="Rectangle_84" data-name="Rectangle 84" width="2.297" height="8.952" transform="translate(11.72 0)" fill="#704627"/>
      <rect id="Rectangle_85" data-name="Rectangle 85" width="2.297" height="8.952" transform="translate(23.44 27.093)" fill="#704627"/>
      <rect id="Rectangle_86" data-name="Rectangle 86" width="2.297" height="8.952" transform="translate(11.72 27.093)" fill="#704627"/>
      <rect id="Rectangle_87" data-name="Rectangle 87" width="2.297" height="8.952" transform="translate(0 0)" fill="#704627"/>
    </g>
  </g>
</svg>
