<svg xmlns="http://www.w3.org/2000/svg" width="109.148" height="87.783" viewBox="0 0 109.148 87.783">
  <g id="bird-4" transform="translate(0 -22.506)">
    <g id="Group_49" data-name="Group 49" transform="translate(35.055 93.141)">
      <path id="Path_65" data-name="Path 65" d="M91.494,184.934h4.367V173.5a2.184,2.184,0,0,0-2.184-2.184h0a2.184,2.184,0,0,0-2.183,2.184v11.432Z" transform="translate(-83.121 -171.319)" fill="#db9f15"/>
      <path id="Path_66" data-name="Path 66" d="M75.62,203.535H90.8a1.766,1.766,0,0,0,1.766-1.766h0A1.766,1.766,0,0,0,90.8,200H75.62a1.766,1.766,0,0,0-1.766,1.766h0A1.767,1.767,0,0,0,75.62,203.535Z" transform="translate(-73.854 -186.388)" fill="#db9f15"/>
    </g>
    <g id="Group_50" data-name="Group 50" transform="translate(44.412 93.141)">
      <path id="Path_67" data-name="Path 67" d="M111.206,184.934h4.367V173.5a2.184,2.184,0,0,0-2.184-2.184h0a2.184,2.184,0,0,0-2.183,2.184v11.432Z" transform="translate(-102.833 -171.319)" fill="#ffb819"/>
      <path id="Path_68" data-name="Path 68" d="M95.332,203.535h15.18a1.766,1.766,0,0,0,1.766-1.766h0A1.766,1.766,0,0,0,110.513,200H95.332a1.766,1.766,0,0,0-1.766,1.766h0A1.766,1.766,0,0,0,95.332,203.535Z" transform="translate(-93.566 -186.388)" fill="#ffb819"/>
    </g>
    <path id="Path_69" data-name="Path 69" d="M15.644,97.46h0a43.632,43.632,0,0,0,43.632,43.632h0a35.46,35.46,0,0,0,35.46-35.46V97.46Z" transform="translate(-8.218 -39.376)" fill="#5c6670"/>
    <path id="Path_70" data-name="Path 70" d="M34.02,22.506h0A18.376,18.376,0,0,0,15.644,40.882v17.2a24.89,24.89,0,0,0,24.89,24.89h4.708A7.155,7.155,0,0,0,52.4,75.819V40.882A18.376,18.376,0,0,0,34.02,22.506Z" transform="translate(-8.218 0)" fill="#868d94"/>
    <path id="Path_71" data-name="Path 71" d="M7.78,62.983A7.78,7.78,0,0,0,0,70.763H12.258v-7.78Z" transform="translate(0 -21.264)" fill="#f4cd00"/>
    <g id="Group_51" data-name="Group 51" transform="translate(17.73 33.91)">
      <circle id="Ellipse_5" data-name="Ellipse 5" cx="5.608" cy="5.608" r="5.608" transform="translate(0 0)" fill="#fff"/>
      <circle id="Ellipse_6" data-name="Ellipse 6" cx="2.804" cy="2.804" r="2.804" transform="translate(2.804 2.804)" fill="#004987"/>
    </g>
    <path id="Path_72" data-name="Path 72" d="M182.244,48.831a11.891,11.891,0,0,0-11.892,11.891V71.913h5.206a23.083,23.083,0,0,0,23.083-23.082Z" transform="translate(-89.493 -13.83)" fill="#5c6670"/>
    <path id="Path_73" data-name="Path 73" d="M93.171,113.338a12.093,12.093,0,0,0-12.093,12.093v2.186A12.093,12.093,0,0,0,93.171,139.71h2.855A19.176,19.176,0,0,0,115.2,120.534v-7.2Z" transform="translate(-42.594 -47.718)" fill="#41484f"/>
  </g>
</svg>
