<svg xmlns="http://www.w3.org/2000/svg" width="80.249" height="76.769" viewBox="0 0 80.249 76.769">
  <g id="bird-1" transform="translate(0 -4.873)">
    <path id="Path_104" data-name="Path 104" d="M117.379,4.873A15.828,15.828,0,0,0,101.551,20.7V50.385a15.828,15.828,0,0,0,15.828,15.828h0V4.873Z" transform="translate(-65.283)" fill="#6cc04a"/>
    <g id="Group_64" data-name="Group 64" transform="translate(0 27.629)">
      <path id="Path_105" data-name="Path 105" d="M0,68.59a26.048,26.048,0,1,0,52.1,0Z" transform="translate(0 -68.59)" fill="#9cd381"/>
      <path id="Path_106" data-name="Path 106" d="M27.046,68.59a16.389,16.389,0,1,0,32.777,0Z" transform="translate(-17.387 -68.59)" fill="#6cc04a"/>
    </g>
    <path id="Path_107" data-name="Path 107" d="M145.869,32.2h28.153l-28.153,3.172Z" transform="translate(-93.773 -17.567)" fill="#8a6760"/>
    <g id="Group_65" data-name="Group 65" transform="translate(42.473 11.047)">
      <circle id="Ellipse_11" data-name="Ellipse 11" cx="3.366" cy="3.366" r="3.366" fill="#fff"/>
      <circle id="Ellipse_12" data-name="Ellipse 12" cx="1.683" cy="1.683" r="1.683" transform="translate(1.683 1.683)" fill="#7f56c5"/>
    </g>
    <g id="Group_66" data-name="Group 66" transform="translate(36.667 66.213)">
      <path id="Path_108" data-name="Path 108" d="M118.1,192.054a15.429,15.429,0,0,1-15.429-15.429H118.1Z" transform="translate(-102.668 -176.625)" fill="#9cd381"/>
      <path id="Path_109" data-name="Path 109" d="M123.836,188.865a12.24,12.24,0,0,1-12.24-12.24h12.24Z" transform="translate(-108.407 -176.625)" fill="#6cc04a"/>
    </g>
  </g>
</svg>
