<svg xmlns="http://www.w3.org/2000/svg" width="229.951" height="184.939" viewBox="0 0 229.951 184.939">
  <g id="bird-4" transform="translate(0 -22.506)">
    <g id="Group_49" data-name="Group 49">
      <path id="Path_65" data-name="Path 65" d="M91.5,200h9.2V175.919a4.6,4.6,0,0,0-4.6-4.6h0a4.6,4.6,0,0,0-4.6,4.6V200Z" fill="#db9f15"/>
      <path id="Path_66" data-name="Path 66" d="M77.575,207.445h31.982a3.72,3.72,0,0,0,3.721-3.721h0A3.721,3.721,0,0,0,109.557,200H77.575a3.721,3.721,0,0,0-3.721,3.721h0A3.722,3.722,0,0,0,77.575,207.445Z" fill="#db9f15"/>
    </g>
    <g id="Group_50" data-name="Group 50">
      <path id="Path_67" data-name="Path 67" d="M111.207,200h9.2V175.919a4.6,4.6,0,0,0-4.6-4.6h0a4.6,4.6,0,0,0-4.6,4.6V200Z" fill="#ffb819"/>
      <path id="Path_68" data-name="Path 68" d="M97.287,207.445h31.982a3.72,3.72,0,0,0,3.721-3.721h0A3.721,3.721,0,0,0,129.269,200H97.287a3.721,3.721,0,0,0-3.721,3.721h0A3.721,3.721,0,0,0,97.287,207.445Z" fill="#ffb819"/>
    </g>
    <path id="Path_69" data-name="Path 69" d="M15.644,97.46h0a91.922,91.922,0,0,0,91.922,91.922h0a74.706,74.706,0,0,0,74.706-74.706V97.46Z" fill="#5c6670"/>
    <path id="Path_70" data-name="Path 70" d="M54.358,22.506h0A38.714,38.714,0,0,0,15.644,61.22V97.46A52.438,52.438,0,0,0,68.082,149.9H78a15.073,15.073,0,0,0,15.073-15.073V61.22A38.714,38.714,0,0,0,54.358,22.506Z" fill="#868d94"/>
    <path id="Path_71" data-name="Path 71" d="M16.39,62.983A16.39,16.39,0,0,0,0,79.373H25.825V62.983Z" fill="#f4cd00"/>
    <g id="Group_51" data-name="Group 51">
      <circle id="Ellipse_5" data-name="Ellipse 5" cx="11.814" cy="11.814" r="11.814" transform="translate(37.354 46.531)" fill="#fff"/>
      <circle id="Ellipse_6" data-name="Ellipse 6" cx="5.907" cy="5.907" r="5.907" transform="translate(43.261 52.438)" fill="#004987"/>
    </g>
    <path id="Path_72" data-name="Path 72" d="M195.4,48.831a25.052,25.052,0,0,0-25.053,25.052V97.46h10.969a48.63,48.63,0,0,0,48.63-48.629H195.4Z" fill="#5c6670"/>
    <path id="Path_73" data-name="Path 73" d="M106.556,113.338a25.478,25.478,0,0,0-25.478,25.477v4.606A25.477,25.477,0,0,0,106.556,168.9h6.014a40.4,40.4,0,0,0,40.4-40.4v-15.16H106.556Z" fill="#41484f"/>
  </g>
</svg>
