<svg xmlns="http://www.w3.org/2000/svg" width="60.185" height="108.541" viewBox="0 0 60.185 108.541">
  <g id="flamingo2" transform="translate(-93.679)">
    <g id="Group_40" data-name="Group 40" transform="translate(100.247 59.875)">
      <path id="Path_42" data-name="Path 42" d="M150.789,251.6h-30.2a1.461,1.461,0,0,1-1.461-1.461V233.447a1.462,1.462,0,0,1,1.461-1.461h0a1.461,1.461,0,0,1,1.461,1.461v13.769a1.461,1.461,0,0,0,1.461,1.461h27.277a1.461,1.461,0,0,1,1.461,1.461h0A1.462,1.462,0,0,1,150.789,251.6Z" transform="translate(-119.128 -231.986)" fill="#db9f15"/>
      <path id="Path_43" data-name="Path 43" d="M243.26,291.1h0a1.461,1.461,0,0,1-1.461-1.461v-9.051a1.462,1.462,0,0,1,1.461-1.461h0a1.461,1.461,0,0,1,1.461,1.461v9.051A1.462,1.462,0,0,1,243.26,291.1Z" transform="translate(-210.138 -266.958)" fill="#db9f15"/>
    </g>
    <g id="Group_41" data-name="Group 41" transform="translate(107.512 66.16)">
      <path id="Path_44" data-name="Path 44" d="M168.046,297.256h0a1.461,1.461,0,0,1-1.461-1.462v-38a1.461,1.461,0,0,1,1.461-1.461h0a1.461,1.461,0,0,1,1.461,1.461v38A1.461,1.461,0,0,1,168.046,297.256Z" transform="translate(-161.601 -256.336)" fill="#ffb819"/>
      <path id="Path_45" data-name="Path 45" d="M158.7,412.14h-9.968a1.461,1.461,0,0,1-1.461-1.461h0a1.461,1.461,0,0,1,1.461-1.462H158.7a1.461,1.461,0,0,1,1.461,1.462h0A1.461,1.461,0,0,1,158.7,412.14Z" transform="translate(-147.275 -369.759)" fill="#ffb819"/>
    </g>
    <path id="Path_46" data-name="Path 46" d="M270.189,19.109v-.07H259.021v7.944h10.165v.15a7.345,7.345,0,0,0,7.344,7.345V26.384A7.344,7.344,0,0,0,270.189,19.109Z" transform="translate(-122.668 -14.125)" fill="#f9e0a4"/>
    <path id="Path_47" data-name="Path 47" d="M93.679,161.321v8.321a20.907,20.907,0,0,0,20.907,20.907h0a18.325,18.325,0,0,0,18.325-18.325v-10.9H93.679Z" transform="translate(0 -119.684)" fill="#ffb2b8"/>
    <g id="Group_42" data-name="Group 42" transform="translate(97.869 46.539)">
      <path id="Path_48" data-name="Path 48" d="M109.913,180.314a15.426,15.426,0,1,0,30.852,0Z" transform="translate(-109.913 -180.314)" fill="#d49398"/>
      <path id="Path_49" data-name="Path 49" d="M127.009,180.314a13.22,13.22,0,1,0,26.44,0Z" transform="translate(-122.597 -180.314)" fill="#ffd3d6"/>
    </g>
    <path id="Path_50" data-name="Path 50" d="M231.792,0H224.91a5.621,5.621,0,0,0-5.621,5.621V41.637H226.1V12.858h5.691a5.621,5.621,0,0,0,5.621-5.621V5.621A5.621,5.621,0,0,0,231.792,0Z" transform="translate(-93.19)" fill="#ffb2b8"/>
    <path id="Path_51" data-name="Path 51" d="M302.359,57a10.411,10.411,0,0,1-3.007-.443,7.347,7.347,0,0,0,7.1,5.464V56.161A10.383,10.383,0,0,1,302.359,57Z" transform="translate(-152.589 -41.666)" fill="#3e4543"/>
    <g id="Group_43" data-name="Group 43" transform="translate(133.928 3.688)">
      <circle id="Ellipse_1" data-name="Ellipse 1" cx="2.77" cy="2.77" r="2.77" fill="#fff"/>
      <circle id="Ellipse_2" data-name="Ellipse 2" cx="1.385" cy="1.385" r="1.385" transform="translate(1.385 1.385)" fill="#004987"/>
    </g>
  </g>
</svg>
