<svg xmlns="http://www.w3.org/2000/svg" width="37.549" height="30.729" viewBox="0 0 37.549 30.729">
  <g id="nest" transform="translate(0 -9.13)">
    <path id="Path_52" data-name="Path 52" d="M26.66,20.314c0-3.87-1.8-10.911-7.006-10.911s-7.006,7.042-7.006,10.911a7.006,7.006,0,0,0,14.013,0Z" transform="translate(-7.923 -0.171)" fill="#f9e0a4"/>
    <g id="Group_44" data-name="Group 44" transform="translate(19.764 9.13)">
      <path id="Path_53" data-name="Path 53" d="M66.927,20.041c0-3.87-1.8-10.911-7.006-10.911s-7.006,7.042-7.006,10.911a7.006,7.006,0,0,0,14.013,0Z" transform="translate(-52.914 -9.13)" fill="#f9e0a4"/>
      <path id="Path_54" data-name="Path 54" d="M76.4,12.292a6.094,6.094,0,0,0-.787-.66l-2.416,2.8,1.751,1.28-.353,1.669,1,.213.49-2.319L74.7,14.264Z" transform="translate(-65.62 -10.697)" fill="#d4be8c"/>
    </g>
    <path id="Path_55" data-name="Path 55" d="M3.634,44.769a17.417,17.417,0,0,0,34.835,0Z" transform="translate(-2.277 -22.327)" fill="#877874"/>
    <path id="Path_56" data-name="Path 56" d="M35.373,33.115H2.176A2.177,2.177,0,0,0,0,35.291H0a2.177,2.177,0,0,0,2.176,2.176h33.2a2.176,2.176,0,0,0,2.176-2.176h0A2.176,2.176,0,0,0,35.373,33.115Z" transform="translate(0 -15.026)" fill="#b3a7a1"/>
    <g id="Group_45" data-name="Group 45" transform="translate(4.499 23.566)">
      <rect id="Rectangle_66" data-name="Rectangle 66" width="2.238" height="1.121" transform="matrix(0.816, 0.578, -0.578, 0.816, 3.535, 1.87)" fill="#4f4644"/>
      <rect id="Rectangle_67" data-name="Rectangle 67" width="1.121" height="3.959" transform="matrix(0.599, 0.801, -0.801, 0.599, 10.066, 6.928)" fill="#4f4644"/>
      <rect id="Rectangle_68" data-name="Rectangle 68" width="3.517" height="1.121" transform="translate(21.721 2.684) rotate(58.715)" fill="#4f4644"/>
      <rect id="Rectangle_69" data-name="Rectangle 69" width="1.12" height="2.404" transform="matrix(0.859, 0.512, -0.512, 0.859, 18.569, 8.991)" fill="#4f4644"/>
      <rect id="Rectangle_70" data-name="Rectangle 70" width="1.12" height="5.296" transform="translate(17.559) rotate(62.082)" fill="#4f4644"/>
      <rect id="Rectangle_71" data-name="Rectangle 71" width="2.575" height="1.12" transform="matrix(0.327, 0.945, -0.945, 0.327, 28.964, 2.793)" fill="#4f4644"/>
      <rect id="Rectangle_72" data-name="Rectangle 72" width="2.652" height="1.121" transform="matrix(0.985, 0.172, -0.172, 0.985, 8.914, 12.962)" fill="#4f4644"/>
      <rect id="Rectangle_73" data-name="Rectangle 73" width="1.121" height="2.636" transform="matrix(0.4, 0.917, -0.917, 0.4, 2.416, 4.986)" fill="#4f4644"/>
    </g>
  </g>
</svg>
