<svg xmlns="http://www.w3.org/2000/svg" width="77.504" height="66.838" viewBox="0 0 77.504 66.838">
  <g id="papagaaispigel" transform="translate(0 -16.419)">
    <g id="Group_59" data-name="Group 59" transform="translate(31.284 72.176)">
      <path id="Path_90" data-name="Path 90" d="M116.954,196.878h2.822v-7.387a1.411,1.411,0,0,0-1.411-1.411h0a1.411,1.411,0,0,0-1.411,1.411v7.387Z" transform="translate(-111.544 -188.08)" fill="#db9f15"/>
      <path id="Path_91" data-name="Path 91" d="M106.211,217.45h9.81a1.141,1.141,0,0,0,1.141-1.141h0a1.141,1.141,0,0,0-1.141-1.141h-9.81a1.141,1.141,0,0,0-1.141,1.141h0A1.141,1.141,0,0,0,106.211,217.45Z" transform="translate(-105.07 -206.369)" fill="#db9f15"/>
    </g>
    <g id="Group_60" data-name="Group 60" transform="translate(0 44.512)">
      <path id="Path_92" data-name="Path 92" d="M147.893,102.911h0a18.476,18.476,0,0,0,18.476,18.476H177.36V102.911Z" transform="translate(-147.893 -102.911)" fill="#00af41"/>
      <path id="Path_93" data-name="Path 93" d="M147.894,102.911h0a14.739,14.739,0,0,0,14.74,14.74H171.4v-14.74Z" transform="translate(-141.935 -102.911)" fill="#007934"/>
      <path id="Path_94" data-name="Path 94" d="M147.894,102.911h0a11.312,11.312,0,0,0,11.312,11.312h6.729V102.911Z" transform="translate(-136.468 -102.911)" fill="#009bde"/>
    </g>
    <path id="Path_95" data-name="Path 95" d="M103.957,82.263V121.3H99.769a19.482,19.482,0,0,1-19.482-19.482V82.263Z" transform="translate(-52.531 -44.457)" fill="#a93439"/>
    <path id="Path_96" data-name="Path 96" d="M32.933,16.419H65.007A17.75,17.75,0,0,1,47.621,34.164,14.951,14.951,0,1,1,32.933,16.419Z" transform="translate(6.656 0)" fill="#e63c2f"/>
    <g id="Group_61" data-name="Group 61" transform="translate(48.037 46.381)">
      <path id="Path_97" data-name="Path 97" d="M29.467,108.664h0A18.476,18.476,0,0,1,10.991,127.14H0V108.664Z" transform="translate(0 -108.664)" fill="#00af41"/>
      <path id="Path_98" data-name="Path 98" d="M41.855,108.664h0A14.74,14.74,0,0,1,27.116,123.4H18.348V108.664Z" transform="translate(-18.348 -108.664)" fill="#007934"/>
      <path id="Path_99" data-name="Path 99" d="M53.219,108.664h0a11.312,11.312,0,0,1-11.312,11.312H35.178V108.664Z" transform="translate(-35.178 -108.664)" fill="#009bde"/>
    </g>
    <g id="Group_62" data-name="Group 62" transform="translate(33.683 25.793)">
      <circle id="Ellipse_9" data-name="Ellipse 9" cx="3.646" cy="3.646" r="3.646" transform="translate(0 0)" fill="#fff"/>
      <circle id="Ellipse_10" data-name="Ellipse 10" cx="1.823" cy="1.823" r="1.823" transform="translate(1.823 1.823)" fill="#814c3a"/>
    </g>
    <path id="Path_100" data-name="Path 100" d="M159.806,54.548h3.581v8.564H151.242A8.564,8.564,0,0,1,159.806,54.548Z" transform="translate(-135.008 -25.744)" fill="#ffd13f"/>
    <path id="Path_101" data-name="Path 101" d="M51.117,167.618a5.656,5.656,0,1,1,0,11.312H45.461v-5.656A5.656,5.656,0,0,1,51.117,167.618Z" transform="translate(5.965 -102.088)" fill="#e63c2f"/>
    <g id="Group_63" data-name="Group 63" transform="translate(40.2 72.176)">
      <path id="Path_102" data-name="Path 102" d="M89.5,196.878h2.822v-7.387a1.411,1.411,0,0,0-1.411-1.411h0a1.411,1.411,0,0,0-1.411,1.411v7.387Z" transform="translate(-84.089 -188.08)" fill="#ffb819"/>
      <path id="Path_103" data-name="Path 103" d="M78.759,217.45h9.81a1.141,1.141,0,0,0,1.141-1.141h0a1.141,1.141,0,0,0-1.141-1.141h-9.81a1.141,1.141,0,0,0-1.141,1.141h0A1.142,1.142,0,0,0,78.759,217.45Z" transform="translate(-77.618 -206.369)" fill="#ffb819"/>
    </g>
  </g>
</svg>
