<?xml version="1.0" standalone="no"?>
<!DOCTYPE svg PUBLIC "-//W3C//DTD SVG 20010904//EN"
 "http://www.w3.org/TR/2001/REC-SVG-20010904/DTD/svg10.dtd">
<svg version="1.0" xmlns="http://www.w3.org/2000/svg"
 width="146.000000pt" height="146.000000pt" viewBox="0 0 146.000000 146.000000"
 preserveAspectRatio="xMidYMid meet">
<metadata>
Created by potrace 1.11, written by Peter Selinger 2001-2013
</metadata>
<g transform="translate(0.000000,146.000000) scale(0.100000,-0.100000)"
fill="#000000" stroke="none">
<path d="M1180 1432 c-30 -14 -129 -62 -220 -105 -91 -44 -202 -97 -248 -118
l-83 -39 -104 84 -103 84 -59 -3 c-32 -2 -77 -4 -100 -4 -41 -1 -42 -2 -86
-78 -25 -43 -44 -79 -42 -81 2 -2 31 11 64 28 l61 30 9 -22 c5 -13 30 -79 56
-148 26 -69 53 -130 59 -136 6 -6 115 -53 241 -104 l230 -93 32 -66 c29 -59
41 -100 58 -211 3 -19 8 -42 10 -50 2 -8 7 -28 9 -45 3 -16 17 -88 31 -158 14
-71 25 -138 25 -150 0 -11 2 -18 4 -16 4 4 6 18 22 154 4 33 8 69 10 80 1 11
3 30 3 43 1 12 4 22 9 22 4 0 32 -43 61 -95 30 -53 55 -94 57 -92 2 2 -3 41
-12 88 -8 46 -17 98 -19 114 -3 17 -7 41 -10 55 -3 14 -8 40 -11 59 -3 18 -8
43 -10 55 -2 11 -6 35 -9 51 -3 17 -7 44 -10 60 -10 57 -18 110 -18 123 0 6
-4 12 -9 12 -5 0 -7 4 -4 8 3 5 -5 17 -17 27 -12 10 -38 33 -59 51 l-36 32 45
54 c25 29 69 80 97 113 94 107 191 220 204 237 12 15 2 14 -74 -7 -49 -13 -89
-23 -90 -22 -2 2 34 81 73 160 13 26 22 47 21 46 -2 0 -28 -12 -58 -27z"/>
</g>
</svg>
