<?xml version="1.0" standalone="no"?>
<!DOCTYPE svg PUBLIC "-//W3C//DTD SVG 20010904//EN"
 "http://www.w3.org/TR/2001/REC-SVG-20010904/DTD/svg10.dtd">
<svg version="1.0" xmlns="http://www.w3.org/2000/svg"
 width="956.000000pt" height="956.000000pt" viewBox="0 0 956.000000 956.000000"
 preserveAspectRatio="xMidYMid meet">
<metadata>
Created by potrace 1.11, written by Peter Selinger 2001-2013
</metadata>
<g transform="translate(0.000000,956.000000) scale(0.100000,-0.100000)"
fill="#000000" stroke="none">
<path d="M715 8890 c3 -5 8 -56 10 -112 5 -105 6 -113 24 -228 33 -211 97
-413 195 -609 76 -156 86 -174 105 -196 9 -11 23 -32 31 -47 7 -16 17 -28 22
-28 4 0 8 -5 8 -11 0 -6 17 -33 38 -59 20 -27 47 -61 59 -77 12 -15 42 -49 66
-75 24 -27 43 -48 42 -48 -2 0 34 -35 79 -77 44 -43 83 -80 86 -83 3 -3 25
-21 50 -40 25 -19 47 -37 50 -40 28 -31 252 -171 340 -212 25 -11 47 -24 50
-27 6 -8 191 -82 203 -81 4 0 20 -6 35 -13 24 -12 115 -40 173 -53 10 -2 29
-7 42 -10 12 -3 36 -7 52 -10 17 -2 36 -6 43 -9 8 -3 37 -8 65 -11 29 -3 63
-8 77 -10 14 -3 65 -7 115 -10 49 -3 91 -6 91 -7 1 -1 5 -15 7 -32 8 -42 13
-64 28 -115 7 -25 13 -48 15 -52 1 -5 3 -10 4 -13 1 -3 3 -8 4 -12 5 -20 31
-92 46 -128 59 -133 74 -165 82 -165 4 0 8 -8 8 -17 0 -9 35 -68 78 -132 l77
-116 1 -345 c1 -190 0 -352 -2 -361 -4 -15 -133 -17 -1592 -17 -873 0 -1595
-1 -1605 -1 -18 -1 -18 -9 -13 -113 6 -105 8 -134 21 -220 9 -68 25 -154 34
-185 5 -18 7 -33 4 -33 -3 0 0 -7 7 -15 7 -8 9 -15 6 -15 -4 0 -2 -8 3 -18 6
-11 13 -32 16 -48 9 -44 10 -45 30 -99 109 -294 234 -511 418 -730 81 -95 219
-229 315 -305 18 -14 42 -33 54 -43 13 -10 35 -26 51 -35 15 -9 27 -20 27 -24
0 -4 5 -8 11 -8 6 0 29 -13 52 -29 75 -51 303 -174 327 -176 5 0 23 -7 115
-46 30 -12 216 -68 245 -73 14 -2 44 -9 68 -15 24 -7 57 -14 75 -16 18 -2 66
-9 107 -16 41 -6 163 -13 270 -15 242 -6 251 -6 257 -1 2 3 20 1 39 -3 18 -4
34 -5 34 -1 0 5 339 6 595 1 l31 0 0 -335 c0 -293 -2 -361 -12 -312 -27 131
-85 243 -177 340 -85 89 -199 167 -266 182 -9 3 -43 12 -76 21 -101 28 -281
23 -380 -11 -64 -22 -185 -85 -185 -96 0 -5 -6 -9 -12 -9 -29 -1 -188 -177
-188 -208 0 -7 -3 -12 -8 -12 -4 0 -13 -15 -21 -32 -7 -18 -19 -46 -26 -63
-12 -27 -28 -92 -27 -112 0 -5 -3 -12 -7 -18 -9 -11 -6 -218 3 -252 3 -13 8
-31 10 -40 28 -113 90 -218 187 -315 73 -73 103 -94 181 -132 149 -72 164 -73
802 -72 362 1 560 -3 565 -9 4 -5 7 -120 7 -255 l-1 -245 -170 -2 c-194 -3
-222 -7 -251 -31 -81 -68 -62 -201 33 -241 21 -8 337 -11 1223 -9 1177 3 1195
3 1222 23 66 50 77 150 22 210 -41 44 -58 47 -350 48 l-279 2 0 445 0 445 69
47 c37 26 103 75 144 110 42 35 90 73 106 86 17 12 27 22 24 22 -4 0 21 26 54
58 49 47 138 147 224 255 24 30 134 199 151 231 9 17 19 33 22 36 17 14 144
290 133 290 -4 0 -2 4 4 8 5 4 23 47 40 95 l30 89 719 3 c396 1 743 5 770 9
66 8 116 15 135 21 8 2 33 6 54 10 22 3 76 15 120 26 45 12 86 22 91 24 6 1
17 5 25 8 8 3 42 15 75 25 83 27 174 65 280 119 100 50 208 114 213 126 2 4 8
7 14 7 23 0 248 182 349 282 91 90 132 137 242 278 23 29 104 155 123 190 11
19 21 37 24 40 14 14 60 110 53 110 -4 0 -3 4 3 8 42 28 189 476 200 607 1 22
3 40 4 40 7 0 18 101 26 236 4 83 3 107 -8 110 -7 3 -777 4 -1710 4 -1123 0
-1699 3 -1701 10 -2 6 -2 116 -2 245 l2 235 77 114 c42 62 76 119 76 126 0 7
3 15 8 17 10 4 42 67 42 82 0 7 8 22 18 32 16 19 38 19 602 19 345 -1 588 3
591 8 14 21 -7 190 -35 282 -2 6 -6 24 -11 40 -10 38 -76 176 -112 236 -85
140 -279 316 -418 378 -16 7 -38 18 -49 23 -76 40 -225 76 -348 85 -76 5 -88
8 -89 24 -1 11 -2 22 -3 27 -49 215 -120 403 -208 547 -10 17 -21 37 -25 45
-9 21 -97 150 -119 177 -11 12 -30 36 -43 53 -33 43 -168 177 -220 220 -24 19
-57 47 -75 61 -32 26 -183 129 -190 129 -2 0 -31 15 -64 34 -62 35 -219 101
-308 130 -55 18 -55 18 -159 42 -70 16 -86 19 -160 30 -70 12 -4207 16 -4200
4z m3971 -7605 l0 -354 -376 2 -375 2 0 258 c-1 141 2 257 5 257 51 3 248 34
335 53 16 4 104 28 220 61 6 2 23 8 38 14 16 7 30 12 31 12 2 0 21 8 42 17 22
9 45 18 52 19 8 1 16 5 20 8 3 3 6 6 7 6 0 0 1 -160 1 -355z"/>
</g>
</svg>
