<?xml version="1.0" encoding="UTF-8" standalone="no"?>
<!-- Created with Inkscape (http://www.inkscape.org/) -->

<svg
   xmlns:dc="http://purl.org/dc/elements/1.1/"
   xmlns:cc="http://creativecommons.org/ns#"
   xmlns:rdf="http://www.w3.org/1999/02/22-rdf-syntax-ns#"
   xmlns:svg="http://www.w3.org/2000/svg"
   xmlns="http://www.w3.org/2000/svg"
   xmlns:sodipodi="http://sodipodi.sourceforge.net/DTD/sodipodi-0.dtd"
   xmlns:inkscape="http://www.inkscape.org/namespaces/inkscape"
   width="425mm"
   height="210mm"
   viewBox="0 0 1505.9055 744.09448"
   id="svg4511"
   version="1.1"
   inkscape:version="0.91 r"
   sodipodi:docname="background_nature.svg"
   inkscape:export-filename="/home/andry/Рабочий стол/устройство3 стенд 2000х1500 1шт/устройство 3  стенд 2000х1500 мак"
   inkscape:export-xdpi="199.9996"
   inkscape:export-ydpi="199.9996">
  <defs
     id="defs4513">
    <clipPath
       id="clipPath7457"
       clipPathUnits="userSpaceOnUse">
      <path
         inkscape:connector-curvature="0"
         id="path7459"
         d="m 0,841.89 595.28,0 L 595.28,0 0,0 0,841.89 Z" />
    </clipPath>
    <clipPath
       clipPathUnits="userSpaceOnUse"
       id="clipPath8152">
      <path
         style="fill:none;stroke:#ff0000"
         d="m 779.92578,-8459.498 c -6.21395,0.3694 -15.76015,-1.7086 -18.75781,5.6171 -1.6814,5.6477 2.26005,11.9888 1.69922,16.9942 -6.36021,-0.8531 -15.28264,-5.6038 -20.16992,0.791 -3.86157,7.4472 -1.34572,16.1733 -1.86719,24.1738 0.001,5.7796 4.68289,11.3692 10.83984,10.2305 3.19625,0.2325 8.87736,-2.3569 10.41016,0.9961 -2.62135,9.4821 -12.11886,15.1699 -14.69531,24.8047 -4.70471,13.1971 -2.74934,27.7153 -7.63582,40.9088 -0.80833,3.0705 -1.63957,6.1754 -3.13176,8.9974 -7.63659,-7.6527 -16.04187,-15.8141 -27.35938,-17.0527 -10.97297,-2.0267 -22.26522,1.6552 -30.98047,8.3086 -10.08774,4.1694 -22.47391,1.948 -31.19922,9.6191 -7.03088,4.8886 -15.78606,4.1461 -23.65429,6.2481 -9.03059,3.0073 -14.03,11.9775 -22.66016,15.7675 -9.35232,4.8577 -16.58166,12.8669 -20.87438,22.4487 -3.54723,7.9302 -8.76086,14.8334 -14.97327,20.815 -6.10503,7.1724 -6.08052,16.8625 -7.62891,25.5938 -3.13401,12.8351 -12.66948,26.212 -7.24414,39.8535 1.73146,5.1548 6.23439,11.1972 3.68555,16.623 -5.96389,1.0297 -13.95861,1.5653 -15.9629,8.6387 -2.91728,8.5975 4.47032,15.5815 9.07032,21.7734 3.88132,6.3939 6.80843,13.4792 7.76758,20.9356 -22.71101,-12.3059 -41.90385,-33.466 -68.54297,-37.375 -25.28189,-2.7972 -49.63643,6.955 -73.69384,13.0807 -20.58613,6.3091 -41.92097,11.819 -60.61476,22.7669 -10.11888,7.8718 -10.26766,22.1998 -6.69726,33.4278 0.88612,4.6578 4.29353,9.9182 2.7539,14.4609 -8.44959,8.2642 -20.61422,10.8647 -30.17382,17.5996 -11.18587,6.3776 -22.20354,17.8891 -19.96875,31.8125 2.64328,19.3697 16.38566,34.5634 27.17173,50.006 5.36956,7.1429 10.82063,14.2238 16.18764,21.369 -17.55043,27.6185 -26.17688,59.4349 -35.88762,90.3422 -5.38844,18.9364 -10.94391,38.0423 -13.20418,57.6344 0.27612,16.948 12.37941,30.4092 21.21481,43.8061 17.25083,23.745 39.27373,45.5416 48.23246,74.1353 -1.65317,7.7012 -10.61718,10.5462 -14.56022,17.0008 -12.22768,16.6484 -20.01838,36.068 -28.69377,54.6887 -8.95214,20.893 -17.56133,42.2964 -21.56046,64.7441 -0.36099,14.9317 11.40813,26.0395 17.83593,38.4687 6.39346,10.7959 14.15285,21.9823 15.95313,34.4825 -4.77417,25.6454 -22.04131,47.8376 -25.16992,74.0507 0.69252,10.3753 8.20797,18.5424 12.14257,27.8047 7.02835,12.7183 15.22248,24.8834 20.56055,38.4649 -11.78999,16.7357 -27.55391,30.4054 -37.79061,48.3059 -10.19822,15.4627 -16.46057,33.735 -15.50157,52.4125 -0.73892,31.1519 -1.31203,62.4715 2.01093,93.4886 0.16188,4.5674 6.05682,7.8202 9.15934,3.6221 18.03635,-18.2743 30.3026,-41.1278 46.68246,-60.5635 5.88405,7.1362 12.10825,15.8739 13.36719,24.7656 -16.62034,11.5567 -36.48589,18.9885 -50.4961,33.9942 -2.87459,4.2706 0.52993,10.7184 5.8418,10.2031 12.45419,0.9292 25.28474,-4.3504 37.26758,1.2461 21.54361,6.9089 41.81476,19.7417 64.58789,23.3008 14.5343,-3.5347 26.00339,-14.0044 38.13336,-22.1419 9.90012,-7.079 19.60876,-15.8843 30.89789,-19.8816 15.65431,8.3396 26.66764,23.2524 42.92383,30.8262 16.29841,9.2977 37.03504,17.1761 55.20703,8.3867 19.38274,-8.8775 34.94763,-23.9396 53.08493,-34.9068 3.73078,-2.1959 8.19951,-6.6167 12.17874,-2.3022 18.37113,11.0306 34.91281,25.1321 54.78325,33.6085 24.06153,11.7586 50.81159,17.8279 77.61714,16.9208 35.90847,0.5758 73.25101,-3.7651 104.78726,-22.2068 17.05352,-9.3218 32.44292,-21.3987 49.65415,-30.4514 22.87123,13.2296 42.0688,32.6866 66.76757,42.6953 20.23477,5.4451 39.98297,-5.9931 56.25977,-16.8222 12.3032,-8.4058 23.4703,-18.3908 36.4824,-25.75 22.6772,12.8934 41.5862,32.2152 66.1406,41.7676 10.4326,0.6149 19.6479,-5.57 29.3482,-8.4432 18.9375,-7.4959 37.9025,-20.4846 59.0991,-16.8772 7.2748,0.6356 16.5016,3.2654 22.5723,-2 3.6004,-5.9428 -3.4837,-11.365 -7.9336,-14.1211 -14.6378,-10.1797 -30.9207,-17.5973 -46.4395,-26.2753 4.9264,-9.4246 10.7433,-18.6206 13.3223,-29.0528 15.1104,14.8508 25.4442,33.6493 38.5301,50.1786 4.6938,5.5727 9.0011,12.6099 15.6437,15.7902 6.3183,0.3049 6.1002,-7.9435 6.5423,-12.248 2.3301,-33.5756 2.4501,-67.3709 0.1518,-100.9408 -4.3889,-30.5567 -25.3485,-55.1355 -45.2505,-77.3416 -2.4481,-3.6805 -6.7378,-7.5975 -6.8098,-12.0409 8.7484,-22.8399 26.4599,-42.1964 31.1983,-66.7783 -1.7304,-19.3731 -12.7712,-36.2275 -19.4129,-54.1173 -3.385,-8.6826 -6.4466,-18.2197 -2.1067,-27.205 5.5891,-17.3753 19.0805,-30.5116 27.543,-46.3984 7.2539,-18.0608 -2.0198,-36.9817 -7.8414,-53.9619 -9.1526,-24.237 -18.4377,-48.6715 -31.2904,-71.2255 -5,-8.5911 -12.6656,-15.1278 -18.753,-22.797 -4.7656,-11.1676 4.3624,-21.9522 9.7395,-31.0161 15.4873,-24.3002 36.0859,-45.3149 50.1634,-70.5987 5.1815,-9.0324 6.75,-19.8362 3.8868,-29.9035 -6.4729,-37.643 -17.734,-74.3989 -31.7505,-109.8788 -4.3836,-9.9943 -9.5412,-19.6194 -14.4669,-29.351 14.5204,-20.9062 32.4533,-40.3046 42.2148,-64.1796 3.7729,-16.1415 -7.2284,-31.7374 -20.6718,-39.625 -9.3123,-6.2169 -21.1231,-8.8227 -29.0918,-16.8106 -0.1675,-6.5938 3.8354,-12.5197 4.3808,-19.1172 2.5401,-11.1063 0.281,-25.8011 -11.4433,-30.6816 -29.2087,-13.7844 -60.8612,-21.2736 -91.8887,-29.7344 -16.8953,-3.6666 -35.5491,-9.3814 -52.1523,-1.5376 -16.8826,8.0088 -31.185,20.3964 -46.7158,30.6302 -11.9828,8.5564 -26.1175,18.3217 -38.50691,23.5988 11.62331,-9.4773 17.30641,-23.6927 23.25081,-36.9649 3.3799,-7.4035 11.1396,-12.6839 12.7004,-20.8476 0.7583,-7.3292 -6.5735,-12.0914 -13.1993,-11.9414 -2.3276,-0.5802 -8.8119,1.5355 -6.7617,-2.6796 5.4195,-19.168 3.339,-39.7172 -1.6797,-58.7306 -2.7475,-10.1943 -7.91693,-19.451 -14.84957,-27.3632 -6.50078,-7.9721 -9.00458,-18.0679 -13.95312,-26.8418 -3.07183,-4.9429 -9.48333,-5.3228 -13.37525,-9.4071 -10.73063,-8.423 -22.12792,-16.8324 -35.90595,-19.2691 -19.83723,-5.4833 -38.75557,-13.3406 -57.9688,-20.359 -13.41266,-3.8798 -28.73063,-0.3835 -38.37305,9.8848 -1.61519,1.3225 -3.4023,4.8161 -4.91602,4.8593 -8.61975,-19.5703 -6.43211,-42.9036 -19.36934,-60.7618 -2.44122,-5.1403 -8.10972,-9.3135 -8.34355,-15.1014 6.35329,-1.0273 14.56566,4.5853 19.52539,-1.793 3.33821,-8.6626 0.71188,-18.6411 -0.96875,-27.4473 -3.49815,-7.3579 -12.85952,-5.4064 -19.33593,-4.666 -1.07448,-1.9588 1.32262,-6.4342 1.48046,-9.3945 1.64162,-5.2788 -0.38943,-12.7859 -6.84765,-13.1035 -3.62874,-0.3982 -7.28338,-0.4146 -10.92969,-0.3867 z m -290.68555,410.707 c 9.94564,4.3701 18.57834,11.0966 27.41016,17.3047 -20.4173,1.0835 -41.7597,-0.4368 -61.50977,5.8222 -6.07751,4.5242 -4.45108,13.2325 -6.23828,19.7344 -2.13314,17.0874 -2.59956,34.317 -3.43945,51.5 -7.87461,-16.2964 -17.99518,-31.9058 -22.88867,-49.2793 3.00917,-3.9897 8.50519,-5.4566 12.18945,-8.8867 18.08232,-12.1098 35.02296,-26.654 54.47656,-36.1953 z m 596.25387,0.6445 c 23.2951,13.5176 45.7003,29.1437 66.7793,45.7344 -8.9066,18.7851 -18.0475,39.1636 -27.9277,56.4941 -1.3215,-24.56 1.7048,-49.7682 -3.6641,-74.0058 -2.9709,-7.8629 -12.4909,-7.8792 -19.4082,-9.0039 -14.3975,-2.0106 -28.9658,-2.0561 -43.4668,-2.584 8.6225,-6.0736 17.0894,-12.4752 26.5039,-17.3008 l 0.8715,0.4904 0.3121,0.1756 z m 46.668,196.541 c 9.6775,12.6758 19.2926,25.5796 27.7774,39.166 -4.3246,18.3507 -17.4221,32.7956 -25.0586,49.7422 -3.3522,6.775 -6.2195,13.7745 -9.0254,20.7891 -3.2557,-39.5783 -1.6991,-79.6441 -1.1114,-119.375 2.4727,3.2259 4.9454,6.4518 7.418,9.6777 z m -685.63085,48.9981 c -0.0533,17.7838 -0.0256,35.5961 -0.71484,53.3457 -9.39662,-20.2911 -20.86759,-39.5872 -32.71485,-58.4688 -2.04531,-5.5652 5.27047,-8.3589 6.80459,-13.0403 8.66054,-12.4533 17.30207,-24.9308 26.55479,-36.9558 0.0234,18.3731 0.0469,36.7461 0.0703,55.1192 z m 679.44145,215.0136 c 11.921,13.973 22.197,29.2266 33.1875,43.9161 -6.307,20.7704 -9.2327,42.397 -10.1211,64.0273 -2.1042,13.6915 -12.3855,24.5849 -15.4022,38.2504 -3.5495,11.7214 -5.5429,23.8293 -8.1955,35.7672 -2.3299,-59.8318 -1.8598,-119.8523 0.1484,-179.6699 0.254,-0.1372 -0.1792,-3.253 0.3829,-2.2911 z m -680.93754,2.5586 c 1.942,53.1858 0.38858,106.4965 -0.25391,159.7247 -3.66855,-15.4599 -6.75024,-32.2542 -17.7793,-44.3809 -4.46115,-7.9396 -2.33686,-17.7513 -3.65646,-26.4534 -0.35123,-17.0702 -5.23977,-33.5552 -11.14627,-49.4333 10.93131,-13.991 23.14472,-27.0397 32.72461,-42.0469 0.0371,0.8633 0.0742,1.7266 0.11133,2.5898 z m 675.86914,271.6817 c 3.0936,5.7988 7.5859,10.4479 12.7712,14.4636 20.65,18.1325 44.6401,32.6067 62.5354,53.7512 -34.489,-9.2269 -67.7208,-23.5253 -102.9257,-30.2675 10.2025,-11.5151 19.7349,-23.7703 26.8984,-37.3946 0.1333,0.2037 0.53,-0.9287 0.7207,-0.5527 z m -667.5918,2.7168 c 6.34285,11.8427 14.60573,22.5256 24.64648,31.4433 1.71884,1.7519 3.14682,4.0442 -0.52148,3.7383 -33.65394,7.1246 -65.37675,21.1212 -98.67969,29.5703 15.70482,-17.7972 35.7066,-31.0714 53.46246,-46.6693 7.11741,-6.0589 14.04144,-12.3688 20.40278,-19.2252 l 0.51664,0.8562 0.17281,0.2864 z m 251.9375,50.7812 c 22.67978,-0.221 47.72461,7.3648 59.375,28.3418 4.83353,8.2332 9.70716,17.6669 9.25977,27.3242 -1.5619,4.5541 -5.34888,-0.9173 -7.91993,-1.2773 -27.86414,-14.9246 -53.7787,-32.8677 -78.67773,-52.3125 -3.37431,-2.2863 3.91574,-1.2133 5.3457,-1.7734 4.20168,-0.2264 8.41054,-0.2606 12.61719,-0.3028 z m 314.459,0.037 c 11.0892,0.01 22.1784,0.011 33.2676,0.016 -9.265,8.0689 -22.1153,13.68 -34.2383,9.3242 -9.5594,-2.1563 -19.02898,-4.8329 -28.10353,-8.5606 9.62003,-0.6856 19.35093,-0.7093 29.07423,-0.7793 z m -467.53127,0.1211 c 10.06975,0.076 20.05064,0.06 30.07813,0.9805 -13.71845,4.9788 -28.01926,9.5193 -42.55859,9.5879 -7.07984,-1.1539 -12.68493,-6.0274 -18.01758,-10.4668 10.16601,-0.034 20.33203,-0.068 30.49804,-0.1016 z m 311.54883,0.3008 c 7.01361,0.1386 16.00355,0.2103 21.78906,1.1289 -25.29308,18.2755 -49.40521,38.9995 -77.89062,52.1856 -3.14745,1.2464 -6.56079,3.239 -9.75391,3.4394 -0.90095,-9.0811 4.25478,-17.4986 7.7633,-25.5365 8.75803,-16.7849 25.389,-28.8806 44.34659,-30.3218 4.44576,-0.5991 9.09182,-0.8474 13.74558,-0.8956 z"
         id="path8154"
         inkscape:connector-curvature="0" />
    </clipPath>
  </defs>
  <sodipodi:namedview
     id="base"
     pagecolor="#ffffff"
     bordercolor="#666666"
     borderopacity="1.0"
     inkscape:pageopacity="1"
     inkscape:pageshadow="2"
     inkscape:zoom="0.22627417"
     inkscape:cx="590.27679"
     inkscape:cy="263.18896"
     inkscape:document-units="px"
     inkscape:current-layer="layer1"
     showgrid="false"
     inkscape:window-width="1366"
     inkscape:window-height="719"
     inkscape:window-x="0"
     inkscape:window-y="25"
     inkscape:window-maximized="1"
     inkscape:snap-bbox="true"
     inkscape:snap-bbox-midpoints="true"
     inkscape:snap-bbox-edge-midpoints="true"
     inkscape:bbox-nodes="true"
     inkscape:object-nodes="true"
     inkscape:snap-intersection-paths="true"
     inkscape:bbox-paths="true"
     inkscape:object-paths="true"
     inkscape:snap-global="false"
     width="425mm" />
  <metadata
     id="metadata4516">
    <rdf:RDF>
      <cc:Work
         rdf:about="">
        <dc:format>image/svg+xml</dc:format>
        <dc:type
           rdf:resource="http://purl.org/dc/dcmitype/StillImage" />
        <dc:title></dc:title>
      </cc:Work>
    </rdf:RDF>
  </metadata>
  <g
     inkscape:label="1"
     inkscape:groupmode="layer"
     id="layer1"
     transform="translate(0,-308.26774)"
     style="display:inline;opacity:1">
    <rect
       style="display:inline;opacity:1;fill:#B7DAEF;fill-opacity:1;stroke:none;stroke-width:35.40826797;stroke-linecap:round;stroke-linejoin:round;stroke-miterlimit:4;stroke-dasharray:none;stroke-dashoffset:0;stroke-opacity:1"
       id="rect6824"
       width="1511.8069"
       height="741.1792"
       x="-2.1117172"
       y="309.93161" />
    <text
       xml:space="preserve"
       style="font-style:normal;font-weight:normal;font-size:125px;line-height:771.00000381%;font-family:sans-serif;letter-spacing:40px;word-spacing:0px;fill:#000000;fill-opacity:1;stroke:none;stroke-width:1px;stroke-linecap:butt;stroke-linejoin:miter;stroke-opacity:1"
       x="8524.1836"
       y="-451.90558"
       id="text5172"
       sodipodi:linespacing="771%"><tspan
         sodipodi:role="line"
         id="tspan5174"
         x="8524.1836"
         y="-451.90558" /><tspan
         sodipodi:role="line"
         x="8524.1836"
         y="511.84442"
         id="tspan5176" /></text>
    
    <path
       style="fill:#C6E0F0;fill-opacity:1;fill-rule:evenodd;stroke:none;stroke-width:1px;stroke-linecap:butt;stroke-linejoin:miter;stroke-opacity:1"
       d="m 0,1080 400,-300 1000,300 z"
       id="path6750"
       inkscape:connector-curvature="0" />

        <path
       style="fill:#C6E0F0;fill-opacity:1;fill-rule:evenodd;stroke:none;stroke-width:1px;stroke-linecap:butt;stroke-linejoin:miter;stroke-opacity:1"
       d="m 400,0 1200,300 0,500 z"
       id="path6750"
       inkscape:connector-curvature="0" />
    <g       id="g9531"
       transform="matrix(0.14211636,0,0,0.14211636,-1450.1994,920.2835)"
       style="stroke:none">
      <path
         inkscape:connector-curvature="0"
         id="path8307"
         d="m 10754.114,-3511.5239 -41.284,171.3302 105.275,-49.5413 z"
         style="fill:#003c9f;fill-opacity:1;fill-rule:evenodd;stroke:none;stroke-width:1px;stroke-linecap:butt;stroke-linejoin:miter;stroke-opacity:1" />
      <path
         inkscape:connector-curvature="0"
         id="path8309"
         d="m 10818.105,-3389.735 33.027,61.9266 30.963,-97.0183 -63.99,35.0917 z"
         style="fill:#016cb4;fill-opacity:1;fill-rule:evenodd;stroke:none;stroke-width:1px;stroke-linecap:butt;stroke-linejoin:miter;stroke-opacity:1" />
      <path
         inkscape:connector-curvature="0"
         id="path8311"
         d="m 10818.105,-3389.735 -63.991,-121.7889 167.202,-41.2843 z"
         style="fill:#016bb3;fill-opacity:1;fill-rule:evenodd;stroke:none;stroke-width:1px;stroke-linecap:butt;stroke-linejoin:miter;stroke-opacity:1" />
      <path
         inkscape:connector-curvature="0"
         id="path8313"
         d="m 10818.105,-3389.735 63.99,-35.0917 39.221,-127.9815 z"
         style="fill:#006cb4;fill-opacity:1;fill-rule:evenodd;stroke:none;stroke-width:1px;stroke-linecap:butt;stroke-linejoin:miter;stroke-opacity:1" />
      <path
         sodipodi:nodetypes="cccc"
         inkscape:connector-curvature="0"
         id="path8315"
         d="m 10921.316,-3552.8082 464.449,-520.1832 -359.737,187.9789 z"
         style="fill:#00a0d3;fill-opacity:1;fill-rule:evenodd;stroke:none;stroke-width:1px;stroke-linecap:butt;stroke-linejoin:miter;stroke-opacity:1" />
      <path
         inkscape:connector-curvature="0"
         id="path8317"
         d="m 11385.765,-4072.9914 -175.459,563.5318 -288.99,-43.3486 z"
         style="fill:#00a0d2;fill-opacity:1;fill-rule:evenodd;stroke:none;stroke-width:1px;stroke-linecap:butt;stroke-linejoin:miter;stroke-opacity:1" />
      <path
         inkscape:connector-curvature="0"
         id="path8319"
         d="m 10921.316,-3552.8082 -70.184,224.9998 359.174,-181.6512 z"
         style="fill:#009fd2;fill-opacity:1;fill-rule:evenodd;stroke:none;stroke-width:1px;stroke-linecap:butt;stroke-linejoin:miter;stroke-opacity:1" />
      <path
         inkscape:connector-curvature="0"
         id="path8321"
         d="m 11210.306,-3509.4596 41.285,319.9539 -400.459,-138.3027 z"
         style="fill:#016cb4;fill-opacity:1;fill-rule:evenodd;stroke:none;stroke-width:1px;stroke-linecap:butt;stroke-linejoin:miter;stroke-opacity:1" />
      <path
         style="fill:#00a0d2;fill-opacity:1;fill-rule:evenodd;stroke:none;stroke-width:1px;stroke-linecap:butt;stroke-linejoin:miter;stroke-opacity:1"
         d="m 11210.306,-3509.4596 280.478,507.0062 -225.39,-90.5981 -13.803,-96.4542 z"
         id="path9541"
         inkscape:connector-curvature="0" />
    </g>
  </g>
</svg>
